<?xml version="1.0" encoding="utf-8"?>
<!-- Generator: Adobe Illustrator 23.0.6, SVG Export Plug-In . SVG Version: 6.00 Build 0)  -->
<svg version="1.1" id="Calque_1" xmlns="http://www.w3.org/2000/svg" xmlns:xlink="http://www.w3.org/1999/xlink" x="0px" y="0px"
	 viewBox="0 0 636.2 616" style="enable-background:new 0 0 636.2 616;" xml:space="preserve">
<style type="text/css">
	.st0{fill:#7F7F7F;}
	.st1{display:none;fill:#C98A5F;}
	.st2{display:none;fill:#7C4F31;}
	.st3{display:none;fill:#7A523C;stroke:#512E17;stroke-width:3;stroke-miterlimit:10;}
	.st4{display:none;fill:#FFFFFF;}
	.st5{display:none;}
	.st6{display:inline;fill:#FFFFFF;stroke:#303030;stroke-width:3;stroke-miterlimit:10;}
	.st7{display:inline;fill:#E0363F;}
</style>
<title>cookie</title>
<g>
	<ellipse class="st0" cx="318.1" cy="308" rx="318.1" ry="308"/>
	<ellipse cx="318.5" cy="307" rx="301.5" ry="290"/>
	<path class="st1" d="M414,356.4"/>
	<circle class="st2" cx="236.9" cy="244" r="19"/>
	<circle class="st3" cx="461" cy="157" r="33.5"/>
	<circle class="st3" cx="461" cy="465" r="33.5"/>
	<ellipse class="st3" cx="251" cy="537.1" rx="28.5" ry="28.5"/>
	<circle class="st3" cx="102.9" cy="354" r="33.5"/>
	<circle class="st3" cx="566" cy="301" r="28.5"/>
	<circle class="st3" cx="318.5" cy="301.5" r="21"/>
	<circle class="st3" cx="202.4" cy="116.5" r="27"/>
	<ellipse class="st4" cx="229.4" cy="236.5" rx="36" ry="46"/>
	<path class="st5" d="M229.4,191c19.6,0,35.5,20.4,35.5,45.5S249,282,229.4,282s-35.5-20.4-35.5-45.5S209.9,191,229.4,191
		 M229.4,190c-20.2,0-36.5,20.8-36.5,46.5s16.3,46.5,36.5,46.5s36.5-20.8,36.5-46.5S249.6,190,229.4,190z"/>
	<circle class="st5" cx="229.9" cy="237" r="13"/>
	<ellipse class="st4" cx="391.5" cy="237.5" rx="36" ry="46"/>
	<path class="st5" d="M391.5,192c19.6,0,35.5,20.4,35.5,45.5S411,283,391.5,283S356,262.6,356,237.5S371.9,192,391.5,192 M391.5,191
		c-20.2,0-36.5,20.8-36.5,46.5s16.3,46.5,36.5,46.5s36.5-20.8,36.5-46.5S411.6,191,391.5,191z"/>
	<circle class="st5" cx="392" cy="238" r="13"/>
	<path class="st4" d="M350,322"/>
	<path class="st4" d="M325,487"/>
	<path class="st1" d="M260,406"/>
</g>
<g class="st5">
	<path class="st6" d="M461,358c3.3,11.3-36.2,33.3-55.3,42.1C380,411.6,352.2,417.3,324,417c-22-0.2-43.7-4.1-64.4-11.3
		C226,394,183.5,369.2,187,358c3.4-10.8,46.2,1.5,129,2C416.7,360.6,458,348.1,461,358z"/>
	<path class="st7" d="M405.6,400.1c-5.4,2.5-10.9,4.6-16.5,6.5c-21,7.1-43,10.6-65.2,10.4c-22-0.2-43.7-4.1-64.4-11.3
		c-7.3-2.5-15-5.7-22.6-9.2C209.7,383.8,424.8,391.3,405.6,400.1z"/>
</g>
<path class="st5" d="M408.6,397.6H229.8c-3,0-5.4-2.4-5.4-5.4l0,0c0-3,2.4-5.4,5.4-5.4h178.8c3,0,5.4,2.4,5.4,5.4l0,0
	C414,395.1,411.6,397.6,408.6,397.6z"/>
</svg>
